<?xml version="1.0" encoding="UTF-8" standalone="no"?>
<!DOCTYPE svg PUBLIC "-//W3C//DTD SVG 1.1//EN"
 "http://www.w3.org/Graphics/SVG/1.1/DTD/svg11.dtd">
<!-- Generated by graphviz version 13.0.1 (20250615.1724)
 -->
<!-- Pages: 1 -->
<svg width="11995pt" height="584pt"
 viewBox="0.00 0.00 11995.00 584.00" xmlns="http://www.w3.org/2000/svg" xmlns:xlink="http://www.w3.org/1999/xlink">
<g id="graph0" class="graph" transform="scale(1 1) rotate(0) translate(4 580)">
<polygon fill="white" stroke="none" points="-4,4 -4,-580 11991.38,-580 11991.38,4 -4,4"/>
<!-- Phase Fundamentals -->
<g id="node1" class="node">
<title>Phase Fundamentals</title>
<polygon fill="#fff8dc" stroke="#ffb300" stroke-width="3" points="1906.5,-576 1647.5,-576 1647.5,-504 1906.5,-504 1906.5,-576"/>
<text xml:space="preserve" text-anchor="middle" x="1777" y="-530.7" font-family="Helvetica,sans-Serif" font-weight="bold" font-size="24.00" fill="#000000">Phase Fundamentals</text>
</g>
<!-- Python Programming -->
<g id="node2" class="node">
<title>Python Programming</title>
<polygon fill="#fff8dc" stroke="#ffb300" stroke-width="3" points="771.62,-324 510.38,-324 510.38,-252 771.62,-252 771.62,-324"/>
<text xml:space="preserve" text-anchor="middle" x="641" y="-278.7" font-family="Helvetica,sans-Serif" font-weight="bold" font-size="24.00" fill="#000000">Python Programming</text>
</g>
<!-- Phase Fundamentals&#45;&gt;Python Programming -->
<g id="edge1" class="edge">
<title>Phase Fundamentals&#45;&gt;Python Programming</title>
<path fill="none" stroke="#999999" stroke-width="2" d="M1647.24,-510.44C1434.26,-463.57 1011.89,-370.62 788.11,-321.37"/>
<polygon fill="#999999" stroke="#999999" stroke-width="2" points="789.37,-316.63 774.64,-318.41 787.26,-326.21 789.37,-316.63"/>
</g>
<!-- Linear Algebra &amp; Calculus -->
<g id="node4" class="node">
<title>Linear Algebra &amp; Calculus</title>
<polygon fill="#fff8dc" stroke="#ffb300" stroke-width="3" points="1369.38,-324 1052.62,-324 1052.62,-252 1369.38,-252 1369.38,-324"/>
<text xml:space="preserve" text-anchor="middle" x="1211" y="-278.7" font-family="Helvetica,sans-Serif" font-weight="bold" font-size="24.00" fill="#000000">Linear Algebra &amp; Calculus</text>
</g>
<!-- Phase Fundamentals&#45;&gt;Linear Algebra &amp; Calculus -->
<g id="edge3" class="edge">
<title>Phase Fundamentals&#45;&gt;Linear Algebra &amp; Calculus</title>
<path fill="none" stroke="#999999" stroke-width="2" d="M1696.81,-503.58C1594.1,-458.21 1416.3,-379.68 1306.64,-331.25"/>
<polygon fill="#999999" stroke="#999999" stroke-width="2" points="1308.86,-326.87 1294.08,-325.69 1304.9,-335.83 1308.86,-326.87"/>
</g>
<!-- Probability &amp; Statistics -->
<g id="node6" class="node">
<title>Probability &amp; Statistics</title>
<polygon fill="#fff8dc" stroke="#ffb300" stroke-width="3" points="1917,-324 1637,-324 1637,-252 1917,-252 1917,-324"/>
<text xml:space="preserve" text-anchor="middle" x="1777" y="-278.7" font-family="Helvetica,sans-Serif" font-weight="bold" font-size="24.00" fill="#000000">Probability &amp; Statistics</text>
</g>
<!-- Phase Fundamentals&#45;&gt;Probability &amp; Statistics -->
<g id="edge5" class="edge">
<title>Phase Fundamentals&#45;&gt;Probability &amp; Statistics</title>
<path fill="none" stroke="#999999" stroke-width="2" d="M1777,-503.71C1777,-461.28 1777,-389.69 1777,-340.94"/>
<polygon fill="#999999" stroke="#999999" stroke-width="2" points="1781.9,-341.14 1777,-327.14 1772.1,-341.14 1781.9,-341.14"/>
</g>
<!-- Machine Learning Basics -->
<g id="node8" class="node">
<title>Machine Learning Basics</title>
<polygon fill="#fff8dc" stroke="#ffb300" stroke-width="3" points="2493.88,-324 2186.12,-324 2186.12,-252 2493.88,-252 2493.88,-324"/>
<text xml:space="preserve" text-anchor="middle" x="2340" y="-278.7" font-family="Helvetica,sans-Serif" font-weight="bold" font-size="24.00" fill="#000000">Machine Learning Basics</text>
</g>
<!-- Phase Fundamentals&#45;&gt;Machine Learning Basics -->
<g id="edge7" class="edge">
<title>Phase Fundamentals&#45;&gt;Machine Learning Basics</title>
<path fill="none" stroke="#999999" stroke-width="2" d="M1856.77,-503.58C1958.93,-458.21 2135.79,-379.68 2244.86,-331.25"/>
<polygon fill="#999999" stroke="#999999" stroke-width="2" points="2246.54,-335.86 2257.35,-325.7 2242.57,-326.9 2246.54,-335.86"/>
</g>
<!-- Neural Networks Introduction -->
<g id="node10" class="node">
<title>Neural Networks Introduction</title>
<polygon fill="#fff8dc" stroke="#ffb300" stroke-width="3" points="3189.88,-324 2834.12,-324 2834.12,-252 3189.88,-252 3189.88,-324"/>
<text xml:space="preserve" text-anchor="middle" x="3012" y="-278.7" font-family="Helvetica,sans-Serif" font-weight="bold" font-size="24.00" fill="#000000">Neural Networks Introduction</text>
</g>
<!-- Phase Fundamentals&#45;&gt;Neural Networks Introduction -->
<g id="edge9" class="edge">
<title>Phase Fundamentals&#45;&gt;Neural Networks Introduction</title>
<path fill="none" stroke="#999999" stroke-width="2" d="M1906.83,-512.72C2125.07,-468.54 2566.41,-379.2 2820.38,-327.79"/>
<polygon fill="#999999" stroke="#999999" stroke-width="2" points="2821.12,-332.64 2833.87,-325.06 2819.17,-323.03 2821.12,-332.64"/>
</g>
<!-- Euron platform courses for Python basics (4 weeks) -->
<g id="node3" class="node">
<title>Euron platform courses for Python basics (4 weeks)</title>
<polygon fill="#fff8dc" stroke="#ffb300" stroke-width="3" points="616,-72 0,-72 0,0 616,0 616,-72"/>
<text xml:space="preserve" text-anchor="middle" x="308" y="-26.7" font-family="Helvetica,sans-Serif" font-weight="bold" font-size="24.00" fill="#000000">Euron platform courses for Python basics (4 weeks)</text>
</g>
<!-- Python Programming&#45;&gt;Euron platform courses for Python basics (4 weeks) -->
<g id="edge2" class="edge">
<title>Python Programming&#45;&gt;Euron platform courses for Python basics (4 weeks)</title>
<path fill="none" stroke="#999999" stroke-width="2" d="M594,-251.71C534.83,-207.29 433.11,-130.93 368.28,-82.26"/>
<polygon fill="#999999" stroke="#999999" stroke-width="2" points="371.59,-78.62 357.45,-74.13 365.71,-86.45 371.59,-78.62"/>
</g>
<!-- Euron deep dive into math foundations for AI (3 weeks) -->
<g id="node5" class="node">
<title>Euron deep dive into math foundations for AI (3 weeks)</title>
<polygon fill="#fff8dc" stroke="#ffb300" stroke-width="3" points="1377.75,-72 724.25,-72 724.25,0 1377.75,0 1377.75,-72"/>
<text xml:space="preserve" text-anchor="middle" x="1051" y="-26.7" font-family="Helvetica,sans-Serif" font-weight="bold" font-size="24.00" fill="#000000">Euron deep dive into math foundations for AI (3 weeks)</text>
</g>
<!-- Linear Algebra &amp; Calculus&#45;&gt;Euron deep dive into math foundations for AI (3 weeks) -->
<g id="edge4" class="edge">
<title>Linear Algebra &amp; Calculus&#45;&gt;Euron deep dive into math foundations for AI (3 weeks)</title>
<path fill="none" stroke="#999999" stroke-width="2" d="M1188.42,-251.71C1160.78,-208.53 1113.83,-135.17 1082.61,-86.39"/>
<polygon fill="#999999" stroke="#999999" stroke-width="2" points="1086.78,-83.81 1075.1,-74.66 1078.52,-89.09 1086.78,-83.81"/>
</g>
<!-- Core concepts through Euron modules (2 weeks) -->
<g id="node7" class="node">
<title>Core concepts through Euron modules (2 weeks)</title>
<polygon fill="#fff8dc" stroke="#ffb300" stroke-width="3" points="2068.5,-72 1485.5,-72 1485.5,0 2068.5,0 2068.5,-72"/>
<text xml:space="preserve" text-anchor="middle" x="1777" y="-26.7" font-family="Helvetica,sans-Serif" font-weight="bold" font-size="24.00" fill="#000000">Core concepts through Euron modules (2 weeks)</text>
</g>
<!-- Probability &amp; Statistics&#45;&gt;Core concepts through Euron modules (2 weeks) -->
<g id="edge6" class="edge">
<title>Probability &amp; Statistics&#45;&gt;Core concepts through Euron modules (2 weeks)</title>
<path fill="none" stroke="#999999" stroke-width="2" d="M1777,-251.71C1777,-209.28 1777,-137.69 1777,-88.94"/>
<polygon fill="#999999" stroke="#999999" stroke-width="2" points="1781.9,-89.14 1777,-75.14 1772.1,-89.14 1781.9,-89.14"/>
</g>
<!-- Supervised, unsupervised learning on Euron (4 weeks) -->
<g id="node9" class="node">
<title>Supervised, unsupervised learning on Euron (4 weeks)</title>
<polygon fill="#fff8dc" stroke="#ffb300" stroke-width="3" points="2825.5,-72 2176.5,-72 2176.5,0 2825.5,0 2825.5,-72"/>
<text xml:space="preserve" text-anchor="middle" x="2501" y="-26.7" font-family="Helvetica,sans-Serif" font-weight="bold" font-size="24.00" fill="#000000">Supervised, unsupervised learning on Euron (4 weeks)</text>
</g>
<!-- Machine Learning Basics&#45;&gt;Supervised, unsupervised learning on Euron (4 weeks) -->
<g id="edge8" class="edge">
<title>Machine Learning Basics&#45;&gt;Supervised, unsupervised learning on Euron (4 weeks)</title>
<path fill="none" stroke="#999999" stroke-width="2" d="M2362.73,-251.71C2390.53,-208.53 2437.78,-135.17 2469.19,-86.39"/>
<polygon fill="#999999" stroke="#999999" stroke-width="2" points="2473.29,-89.08 2476.75,-74.65 2465.05,-83.77 2473.29,-89.08"/>
</g>
<!-- Euron courses on perceptrons and basics (3 weeks) -->
<g id="node11" class="node">
<title>Euron courses on perceptrons and basics (3 weeks)</title>
<polygon fill="#fff8dc" stroke="#ffb300" stroke-width="3" points="3552.12,-72 2933.88,-72 2933.88,0 3552.12,0 3552.12,-72"/>
<text xml:space="preserve" text-anchor="middle" x="3243" y="-26.7" font-family="Helvetica,sans-Serif" font-weight="bold" font-size="24.00" fill="#000000">Euron courses on perceptrons and basics (3 weeks)</text>
</g>
<!-- Neural Networks Introduction&#45;&gt;Euron courses on perceptrons and basics (3 weeks) -->
<g id="edge10" class="edge">
<title>Neural Networks Introduction&#45;&gt;Euron courses on perceptrons and basics (3 weeks)</title>
<path fill="none" stroke="#999999" stroke-width="2" d="M3044.61,-251.71C3085.02,-207.97 3154.05,-133.26 3199.1,-84.52"/>
<polygon fill="#999999" stroke="#999999" stroke-width="2" points="3202.6,-87.94 3208.5,-74.33 3195.4,-81.29 3202.6,-87.94"/>
</g>
<!-- Phase Specialization -->
<g id="node12" class="node">
<title>Phase Specialization</title>
<polygon fill="#fff8dc" stroke="#ffb300" stroke-width="3" points="5244,-576 4988,-576 4988,-504 5244,-504 5244,-576"/>
<text xml:space="preserve" text-anchor="middle" x="5116" y="-530.7" font-family="Helvetica,sans-Serif" font-weight="bold" font-size="24.00" fill="#000000">Phase Specialization</text>
</g>
<!-- Deep Learning Fundamentals -->
<g id="node13" class="node">
<title>Deep Learning Fundamentals</title>
<polygon fill="#fff8dc" stroke="#ffb300" stroke-width="3" points="4150.25,-324 3793.75,-324 3793.75,-252 4150.25,-252 4150.25,-324"/>
<text xml:space="preserve" text-anchor="middle" x="3972" y="-278.7" font-family="Helvetica,sans-Serif" font-weight="bold" font-size="24.00" fill="#000000">Deep Learning Fundamentals</text>
</g>
<!-- Phase Specialization&#45;&gt;Deep Learning Fundamentals -->
<g id="edge11" class="edge">
<title>Phase Specialization&#45;&gt;Deep Learning Fundamentals</title>
<path fill="none" stroke="#999999" stroke-width="2" d="M4987.55,-510.93C4783.05,-466.24 4382.92,-378.8 4150.63,-328.04"/>
<polygon fill="#999999" stroke="#999999" stroke-width="2" points="4151.88,-323.29 4137.16,-325.09 4149.79,-332.87 4151.88,-323.29"/>
</g>
<!-- Natural Language Processing (NLP) -->
<g id="node15" class="node">
<title>Natural Language Processing (NLP)</title>
<polygon fill="#fff8dc" stroke="#ffb300" stroke-width="3" points="4794,-324 4364,-324 4364,-252 4794,-252 4794,-324"/>
<text xml:space="preserve" text-anchor="middle" x="4579" y="-278.7" font-family="Helvetica,sans-Serif" font-weight="bold" font-size="24.00" fill="#000000">Natural Language Processing (NLP)</text>
</g>
<!-- Phase Specialization&#45;&gt;Natural Language Processing (NLP) -->
<g id="edge13" class="edge">
<title>Phase Specialization&#45;&gt;Natural Language Processing (NLP)</title>
<path fill="none" stroke="#999999" stroke-width="2" d="M5039.92,-503.58C4942.67,-458.31 4774.47,-380 4670.38,-331.54"/>
<polygon fill="#999999" stroke="#999999" stroke-width="2" points="4672.7,-327.22 4657.94,-325.75 4668.56,-336.1 4672.7,-327.22"/>
</g>
<!-- Generative Models Overview -->
<g id="node17" class="node">
<title>Generative Models Overview</title>
<polygon fill="#fff8dc" stroke="#ffb300" stroke-width="3" points="5289,-324 4943,-324 4943,-252 5289,-252 5289,-324"/>
<text xml:space="preserve" text-anchor="middle" x="5116" y="-278.7" font-family="Helvetica,sans-Serif" font-weight="bold" font-size="24.00" fill="#000000">Generative Models Overview</text>
</g>
<!-- Phase Specialization&#45;&gt;Generative Models Overview -->
<g id="edge15" class="edge">
<title>Phase Specialization&#45;&gt;Generative Models Overview</title>
<path fill="none" stroke="#999999" stroke-width="2" d="M5116,-503.71C5116,-461.28 5116,-389.69 5116,-340.94"/>
<polygon fill="#999999" stroke="#999999" stroke-width="2" points="5120.9,-341.14 5116,-327.14 5111.1,-341.14 5120.9,-341.14"/>
</g>
<!-- Transformers Architecture -->
<g id="node19" class="node">
<title>Transformers Architecture</title>
<polygon fill="#fff8dc" stroke="#ffb300" stroke-width="3" points="5772.12,-324 5453.88,-324 5453.88,-252 5772.12,-252 5772.12,-324"/>
<text xml:space="preserve" text-anchor="middle" x="5613" y="-278.7" font-family="Helvetica,sans-Serif" font-weight="bold" font-size="24.00" fill="#000000">Transformers Architecture</text>
</g>
<!-- Phase Specialization&#45;&gt;Transformers Architecture -->
<g id="edge17" class="edge">
<title>Phase Specialization&#45;&gt;Transformers Architecture</title>
<path fill="none" stroke="#999999" stroke-width="2" d="M5186.42,-503.58C5276.14,-458.44 5431.13,-380.48 5527.53,-331.99"/>
<polygon fill="#999999" stroke="#999999" stroke-width="2" points="5529.47,-336.5 5539.78,-325.83 5525.07,-327.75 5529.47,-336.5"/>
</g>
<!-- Large Language Models (LLMs) -->
<g id="node21" class="node">
<title>Large Language Models (LLMs)</title>
<polygon fill="#fff8dc" stroke="#ffb300" stroke-width="3" points="6374,-324 5992,-324 5992,-252 6374,-252 6374,-324"/>
<text xml:space="preserve" text-anchor="middle" x="6183" y="-278.7" font-family="Helvetica,sans-Serif" font-weight="bold" font-size="24.00" fill="#000000">Large Language Models (LLMs)</text>
</g>
<!-- Phase Specialization&#45;&gt;Large Language Models (LLMs) -->
<g id="edge19" class="edge">
<title>Phase Specialization&#45;&gt;Large Language Models (LLMs)</title>
<path fill="none" stroke="#999999" stroke-width="2" d="M5244.44,-508.91C5437.33,-463.71 5801.91,-378.29 6015.47,-328.25"/>
<polygon fill="#999999" stroke="#999999" stroke-width="2" points="6016.39,-333.07 6028.9,-325.11 6014.15,-323.53 6016.39,-333.07"/>
</g>
<!-- CNNs, RNNs on Euron platform (4 weeks) -->
<g id="node14" class="node">
<title>CNNs, RNNs on Euron platform (4 weeks)</title>
<polygon fill="#fff8dc" stroke="#ffb300" stroke-width="3" points="4153.5,-72 3660.5,-72 3660.5,0 4153.5,0 4153.5,-72"/>
<text xml:space="preserve" text-anchor="middle" x="3907" y="-26.7" font-family="Helvetica,sans-Serif" font-weight="bold" font-size="24.00" fill="#000000">CNNs, RNNs on Euron platform (4 weeks)</text>
</g>
<!-- Deep Learning Fundamentals&#45;&gt;CNNs, RNNs on Euron platform (4 weeks) -->
<g id="edge12" class="edge">
<title>Deep Learning Fundamentals&#45;&gt;CNNs, RNNs on Euron platform (4 weeks)</title>
<path fill="none" stroke="#999999" stroke-width="2" d="M3962.82,-251.71C3951.74,-209.09 3933.02,-137.06 3920.34,-88.3"/>
<polygon fill="#999999" stroke="#999999" stroke-width="2" points="3925.16,-87.36 3916.89,-75.04 3915.67,-89.82 3925.16,-87.36"/>
</g>
<!-- Tokenization, embeddings via Euron (3 weeks) -->
<g id="node16" class="node">
<title>Tokenization, embeddings via Euron (3 weeks)</title>
<polygon fill="#fff8dc" stroke="#ffb300" stroke-width="3" points="4814.5,-72 4261.5,-72 4261.5,0 4814.5,0 4814.5,-72"/>
<text xml:space="preserve" text-anchor="middle" x="4538" y="-26.7" font-family="Helvetica,sans-Serif" font-weight="bold" font-size="24.00" fill="#000000">Tokenization, embeddings via Euron (3 weeks)</text>
</g>
<!-- Natural Language Processing (NLP)&#45;&gt;Tokenization, embeddings via Euron (3 weeks) -->
<g id="edge14" class="edge">
<title>Natural Language Processing (NLP)&#45;&gt;Tokenization, embeddings via Euron (3 weeks)</title>
<path fill="none" stroke="#999999" stroke-width="2" d="M4573.21,-251.71C4566.24,-209.18 4554.46,-137.37 4546.47,-88.62"/>
<polygon fill="#999999" stroke="#999999" stroke-width="2" points="4551.35,-88.12 4544.25,-75.1 4541.68,-89.7 4551.35,-88.12"/>
</g>
<!-- GANs, VAEs on Euron (3 weeks) -->
<g id="node18" class="node">
<title>GANs, VAEs on Euron (3 weeks)</title>
<polygon fill="#fff8dc" stroke="#ffb300" stroke-width="3" points="5309.25,-72 4922.75,-72 4922.75,0 5309.25,0 5309.25,-72"/>
<text xml:space="preserve" text-anchor="middle" x="5116" y="-26.7" font-family="Helvetica,sans-Serif" font-weight="bold" font-size="24.00" fill="#000000">GANs, VAEs on Euron (3 weeks)</text>
</g>
<!-- Generative Models Overview&#45;&gt;GANs, VAEs on Euron (3 weeks) -->
<g id="edge16" class="edge">
<title>Generative Models Overview&#45;&gt;GANs, VAEs on Euron (3 weeks)</title>
<path fill="none" stroke="#999999" stroke-width="2" d="M5116,-251.71C5116,-209.28 5116,-137.69 5116,-88.94"/>
<polygon fill="#999999" stroke="#999999" stroke-width="2" points="5120.9,-89.14 5116,-75.14 5111.1,-89.14 5120.9,-89.14"/>
</g>
<!-- Attention mechanisms on Euron (3 weeks) -->
<g id="node20" class="node">
<title>Attention mechanisms on Euron (3 weeks)</title>
<polygon fill="#fff8dc" stroke="#ffb300" stroke-width="3" points="5922.88,-72 5417.12,-72 5417.12,0 5922.88,0 5922.88,-72"/>
<text xml:space="preserve" text-anchor="middle" x="5670" y="-26.7" font-family="Helvetica,sans-Serif" font-weight="bold" font-size="24.00" fill="#000000">Attention mechanisms on Euron (3 weeks)</text>
</g>
<!-- Transformers Architecture&#45;&gt;Attention mechanisms on Euron (3 weeks) -->
<g id="edge18" class="edge">
<title>Transformers Architecture&#45;&gt;Attention mechanisms on Euron (3 weeks)</title>
<path fill="none" stroke="#999999" stroke-width="2" d="M5621.05,-251.71C5630.74,-209.18 5647.12,-137.37 5658.23,-88.62"/>
<polygon fill="#999999" stroke="#999999" stroke-width="2" points="5662.99,-89.8 5661.32,-75.06 5653.43,-87.62 5662.99,-89.8"/>
</g>
<!-- Training and fine&#45;tuning via Euron (4 weeks) -->
<g id="node22" class="node">
<title>Training and fine&#45;tuning via Euron (4 weeks)</title>
<polygon fill="#fff8dc" stroke="#ffb300" stroke-width="3" points="6558.75,-72 6031.25,-72 6031.25,0 6558.75,0 6558.75,-72"/>
<text xml:space="preserve" text-anchor="middle" x="6295" y="-26.7" font-family="Helvetica,sans-Serif" font-weight="bold" font-size="24.00" fill="#000000">Training and fine&#45;tuning via Euron (4 weeks)</text>
</g>
<!-- Large Language Models (LLMs)&#45;&gt;Training and fine&#45;tuning via Euron (4 weeks) -->
<g id="edge20" class="edge">
<title>Large Language Models (LLMs)&#45;&gt;Training and fine&#45;tuning via Euron (4 weeks)</title>
<path fill="none" stroke="#999999" stroke-width="2" d="M6198.81,-251.71C6218.03,-208.81 6250.6,-136.11 6272.45,-87.34"/>
<polygon fill="#999999" stroke="#999999" stroke-width="2" points="6276.78,-89.65 6278.03,-74.87 6267.84,-85.64 6276.78,-89.65"/>
</g>
<!-- Phase Tools and Frameworks -->
<g id="node23" class="node">
<title>Phase Tools and Frameworks</title>
<polygon fill="#fff8dc" stroke="#ffb300" stroke-width="3" points="7939.88,-576 7584.12,-576 7584.12,-504 7939.88,-504 7939.88,-576"/>
<text xml:space="preserve" text-anchor="middle" x="7762" y="-530.7" font-family="Helvetica,sans-Serif" font-weight="bold" font-size="24.00" fill="#000000">Phase Tools and Frameworks</text>
</g>
<!-- PyTorch &amp; TensorFlow -->
<g id="node24" class="node">
<title>PyTorch &amp; TensorFlow</title>
<polygon fill="#fff8dc" stroke="#ffb300" stroke-width="3" points="7111.75,-324 6836.25,-324 6836.25,-252 7111.75,-252 7111.75,-324"/>
<text xml:space="preserve" text-anchor="middle" x="6974" y="-278.7" font-family="Helvetica,sans-Serif" font-weight="bold" font-size="24.00" fill="#000000">PyTorch &amp; TensorFlow</text>
</g>
<!-- Phase Tools and Frameworks&#45;&gt;PyTorch &amp; TensorFlow -->
<g id="edge21" class="edge">
<title>Phase Tools and Frameworks&#45;&gt;PyTorch &amp; TensorFlow</title>
<path fill="none" stroke="#999999" stroke-width="2" d="M7650.35,-503.58C7505.6,-457.65 7253.73,-377.75 7101.58,-329.47"/>
<polygon fill="#999999" stroke="#999999" stroke-width="2" points="7103.52,-324.95 7088.69,-325.39 7100.56,-334.29 7103.52,-324.95"/>
</g>
<!-- Hugging Face Transformers -->
<g id="node26" class="node">
<title>Hugging Face Transformers</title>
<polygon fill="#fff8dc" stroke="#ffb300" stroke-width="3" points="7683.88,-324 7346.12,-324 7346.12,-252 7683.88,-252 7683.88,-324"/>
<text xml:space="preserve" text-anchor="middle" x="7515" y="-278.7" font-family="Helvetica,sans-Serif" font-weight="bold" font-size="24.00" fill="#000000">Hugging Face Transformers</text>
</g>
<!-- Phase Tools and Frameworks&#45;&gt;Hugging Face Transformers -->
<g id="edge23" class="edge">
<title>Phase Tools and Frameworks&#45;&gt;Hugging Face Transformers</title>
<path fill="none" stroke="#999999" stroke-width="2" d="M7727.13,-503.71C7683.83,-459.88 7609.79,-384.94 7561.64,-336.2"/>
<polygon fill="#999999" stroke="#999999" stroke-width="2" points="7565.14,-332.78 7551.82,-326.26 7558.17,-339.67 7565.14,-332.78"/>
</g>
<!-- Model Optimization -->
<g id="node28" class="node">
<title>Model Optimization</title>
<polygon fill="#fff8dc" stroke="#ffb300" stroke-width="3" points="8081.12,-324 7840.88,-324 7840.88,-252 8081.12,-252 8081.12,-324"/>
<text xml:space="preserve" text-anchor="middle" x="7961" y="-278.7" font-family="Helvetica,sans-Serif" font-weight="bold" font-size="24.00" fill="#000000">Model Optimization</text>
</g>
<!-- Phase Tools and Frameworks&#45;&gt;Model Optimization -->
<g id="edge25" class="edge">
<title>Phase Tools and Frameworks&#45;&gt;Model Optimization</title>
<path fill="none" stroke="#999999" stroke-width="2" d="M7790.09,-503.71C7824.76,-460.16 7883.87,-385.9 7922.68,-337.14"/>
<polygon fill="#999999" stroke="#999999" stroke-width="2" points="7926.28,-340.48 7931.17,-326.48 7918.62,-334.38 7926.28,-340.48"/>
</g>
<!-- Cloud Platforms for AI -->
<g id="node30" class="node">
<title>Cloud Platforms for AI</title>
<polygon fill="#fff8dc" stroke="#ffb300" stroke-width="3" points="8626.88,-324 8355.12,-324 8355.12,-252 8626.88,-252 8626.88,-324"/>
<text xml:space="preserve" text-anchor="middle" x="8491" y="-278.7" font-family="Helvetica,sans-Serif" font-weight="bold" font-size="24.00" fill="#000000">Cloud Platforms for AI</text>
</g>
<!-- Phase Tools and Frameworks&#45;&gt;Cloud Platforms for AI -->
<g id="edge27" class="edge">
<title>Phase Tools and Frameworks&#45;&gt;Cloud Platforms for AI</title>
<path fill="none" stroke="#999999" stroke-width="2" d="M7865.29,-503.58C7998.8,-457.79 8230.8,-378.23 8371.69,-329.92"/>
<polygon fill="#999999" stroke="#999999" stroke-width="2" points="8373.05,-334.63 8384.7,-325.45 8369.87,-325.36 8373.05,-334.63"/>
</g>
<!-- Hands&#45;on projects on Euron (3 weeks) -->
<g id="node25" class="node">
<title>Hands&#45;on projects on Euron (3 weeks)</title>
<polygon fill="#fff8dc" stroke="#ffb300" stroke-width="3" points="7125.62,-72 6666.38,-72 6666.38,0 7125.62,0 7125.62,-72"/>
<text xml:space="preserve" text-anchor="middle" x="6896" y="-26.7" font-family="Helvetica,sans-Serif" font-weight="bold" font-size="24.00" fill="#000000">Hands&#45;on projects on Euron (3 weeks)</text>
</g>
<!-- PyTorch &amp; TensorFlow&#45;&gt;Hands&#45;on projects on Euron (3 weeks) -->
<g id="edge22" class="edge">
<title>PyTorch &amp; TensorFlow&#45;&gt;Hands&#45;on projects on Euron (3 weeks)</title>
<path fill="none" stroke="#999999" stroke-width="2" d="M6962.99,-251.71C6949.69,-209.09 6927.22,-137.06 6912.01,-88.3"/>
<polygon fill="#999999" stroke="#999999" stroke-width="2" points="6916.7,-86.9 6907.86,-75 6907.35,-89.82 6916.7,-86.9"/>
</g>
<!-- Practical with Euron tutorials (2 weeks) -->
<g id="node27" class="node">
<title>Practical with Euron tutorials (2 weeks)</title>
<polygon fill="#fff8dc" stroke="#ffb300" stroke-width="3" points="7700.75,-72 7233.25,-72 7233.25,0 7700.75,0 7700.75,-72"/>
<text xml:space="preserve" text-anchor="middle" x="7467" y="-26.7" font-family="Helvetica,sans-Serif" font-weight="bold" font-size="24.00" fill="#000000">Practical with Euron tutorials (2 weeks)</text>
</g>
<!-- Hugging Face Transformers&#45;&gt;Practical with Euron tutorials (2 weeks) -->
<g id="edge24" class="edge">
<title>Hugging Face Transformers&#45;&gt;Practical with Euron tutorials (2 weeks)</title>
<path fill="none" stroke="#999999" stroke-width="2" d="M7508.22,-251.71C7500.06,-209.18 7486.27,-137.37 7476.91,-88.62"/>
<polygon fill="#999999" stroke="#999999" stroke-width="2" points="7481.76,-87.91 7474.31,-75.08 7472.14,-89.75 7481.76,-87.91"/>
</g>
<!-- Quantization, pruning on Euron (2 weeks) -->
<g id="node29" class="node">
<title>Quantization, pruning on Euron (2 weeks)</title>
<polygon fill="#fff8dc" stroke="#ffb300" stroke-width="3" points="8306.75,-72 7809.25,-72 7809.25,0 8306.75,0 8306.75,-72"/>
<text xml:space="preserve" text-anchor="middle" x="8058" y="-26.7" font-family="Helvetica,sans-Serif" font-weight="bold" font-size="24.00" fill="#000000">Quantization, pruning on Euron (2 weeks)</text>
</g>
<!-- Model Optimization&#45;&gt;Quantization, pruning on Euron (2 weeks) -->
<g id="edge26" class="edge">
<title>Model Optimization&#45;&gt;Quantization, pruning on Euron (2 weeks)</title>
<path fill="none" stroke="#999999" stroke-width="2" d="M7974.69,-251.71C7991.27,-209 8019.3,-136.74 8038.22,-87.98"/>
<polygon fill="#999999" stroke="#999999" stroke-width="2" points="8042.79,-89.76 8043.28,-74.93 8033.65,-86.21 8042.79,-89.76"/>
</g>
<!-- Using GPU/TPU on Euron labs (2 weeks) -->
<g id="node31" class="node">
<title>Using GPU/TPU on Euron labs (2 weeks)</title>
<polygon fill="#fff8dc" stroke="#ffb300" stroke-width="3" points="8896.88,-72 8415.12,-72 8415.12,0 8896.88,0 8896.88,-72"/>
<text xml:space="preserve" text-anchor="middle" x="8656" y="-26.7" font-family="Helvetica,sans-Serif" font-weight="bold" font-size="24.00" fill="#000000">Using GPU/TPU on Euron labs (2 weeks)</text>
</g>
<!-- Cloud Platforms for AI&#45;&gt;Using GPU/TPU on Euron labs (2 weeks) -->
<g id="edge28" class="edge">
<title>Cloud Platforms for AI&#45;&gt;Using GPU/TPU on Euron labs (2 weeks)</title>
<path fill="none" stroke="#999999" stroke-width="2" d="M8514.29,-251.71C8542.85,-208.44 8591.42,-134.85 8623.61,-86.08"/>
<polygon fill="#999999" stroke="#999999" stroke-width="2" points="8627.54,-89.02 8631.16,-74.64 8619.36,-83.62 8627.54,-89.02"/>
</g>
<!-- Phase Advanced Topics -->
<g id="node32" class="node">
<title>Phase Advanced Topics</title>
<polygon fill="#fff8dc" stroke="#ffb300" stroke-width="3" points="9992.38,-576 9699.62,-576 9699.62,-504 9992.38,-504 9992.38,-576"/>
<text xml:space="preserve" text-anchor="middle" x="9846" y="-530.7" font-family="Helvetica,sans-Serif" font-weight="bold" font-size="24.00" fill="#000000">Phase Advanced Topics</text>
</g>
<!-- Responsible AI &amp; Ethics -->
<g id="node33" class="node">
<title>Responsible AI &amp; Ethics</title>
<polygon fill="#fff8dc" stroke="#ffb300" stroke-width="3" points="9478.12,-324 9183.88,-324 9183.88,-252 9478.12,-252 9478.12,-324"/>
<text xml:space="preserve" text-anchor="middle" x="9331" y="-278.7" font-family="Helvetica,sans-Serif" font-weight="bold" font-size="24.00" fill="#000000">Responsible AI &amp; Ethics</text>
</g>
<!-- Phase Advanced Topics&#45;&gt;Responsible AI &amp; Ethics -->
<g id="edge29" class="edge">
<title>Phase Advanced Topics&#45;&gt;Responsible AI &amp; Ethics</title>
<path fill="none" stroke="#999999" stroke-width="2" d="M9773.03,-503.58C9679.96,-458.4 9519.12,-380.32 9419.26,-331.84"/>
<polygon fill="#999999" stroke="#999999" stroke-width="2" points="9421.53,-327.5 9406.8,-325.79 9417.25,-336.32 9421.53,-327.5"/>
</g>
<!-- Evaluation &amp; Testing Models -->
<g id="node35" class="node">
<title>Evaluation &amp; Testing Models</title>
<polygon fill="#fff8dc" stroke="#ffb300" stroke-width="3" points="10018.62,-324 9673.38,-324 9673.38,-252 10018.62,-252 10018.62,-324"/>
<text xml:space="preserve" text-anchor="middle" x="9846" y="-278.7" font-family="Helvetica,sans-Serif" font-weight="bold" font-size="24.00" fill="#000000">Evaluation &amp; Testing Models</text>
</g>
<!-- Phase Advanced Topics&#45;&gt;Evaluation &amp; Testing Models -->
<g id="edge31" class="edge">
<title>Phase Advanced Topics&#45;&gt;Evaluation &amp; Testing Models</title>
<path fill="none" stroke="#999999" stroke-width="2" d="M9846,-503.71C9846,-461.28 9846,-389.69 9846,-340.94"/>
<polygon fill="#999999" stroke="#999999" stroke-width="2" points="9850.9,-341.14 9846,-327.14 9841.1,-341.14 9850.9,-341.14"/>
</g>
<!-- Deployment of Generative AI -->
<g id="node37" class="node">
<title>Deployment of Generative AI</title>
<polygon fill="#fff8dc" stroke="#ffb300" stroke-width="3" points="10551.38,-324 10204.62,-324 10204.62,-252 10551.38,-252 10551.38,-324"/>
<text xml:space="preserve" text-anchor="middle" x="10378" y="-278.7" font-family="Helvetica,sans-Serif" font-weight="bold" font-size="24.00" fill="#000000">Deployment of Generative AI</text>
</g>
<!-- Phase Advanced Topics&#45;&gt;Deployment of Generative AI -->
<g id="edge33" class="edge">
<title>Phase Advanced Topics&#45;&gt;Deployment of Generative AI</title>
<path fill="none" stroke="#999999" stroke-width="2" d="M9921.38,-503.58C10017.62,-458.35 10184.01,-380.16 10287.15,-331.69"/>
<polygon fill="#999999" stroke="#999999" stroke-width="2" points="10289.19,-336.15 10299.78,-325.76 10285.02,-327.28 10289.19,-336.15"/>
</g>
<!-- Bias, fairness covered in Euron (1 week) -->
<g id="node34" class="node">
<title>Bias, fairness covered in Euron (1 week)</title>
<polygon fill="#fff8dc" stroke="#ffb300" stroke-width="3" points="9485.5,-72 9004.5,-72 9004.5,0 9485.5,0 9485.5,-72"/>
<text xml:space="preserve" text-anchor="middle" x="9245" y="-26.7" font-family="Helvetica,sans-Serif" font-weight="bold" font-size="24.00" fill="#000000">Bias, fairness covered in Euron (1 week)</text>
</g>
<!-- Responsible AI &amp; Ethics&#45;&gt;Bias, fairness covered in Euron (1 week) -->
<g id="edge30" class="edge">
<title>Responsible AI &amp; Ethics&#45;&gt;Bias, fairness covered in Euron (1 week)</title>
<path fill="none" stroke="#999999" stroke-width="2" d="M9318.86,-251.71C9304.17,-209 9279.31,-136.74 9262.54,-87.98"/>
<polygon fill="#999999" stroke="#999999" stroke-width="2" points="9267.25,-86.62 9258.06,-74.97 9257.98,-89.8 9267.25,-86.62"/>
</g>
<!-- Metrics and validation via Euron (2 weeks) -->
<g id="node36" class="node">
<title>Metrics and validation via Euron (2 weeks)</title>
<polygon fill="#fff8dc" stroke="#ffb300" stroke-width="3" points="10098.5,-72 9593.5,-72 9593.5,0 10098.5,0 10098.5,-72"/>
<text xml:space="preserve" text-anchor="middle" x="9846" y="-26.7" font-family="Helvetica,sans-Serif" font-weight="bold" font-size="24.00" fill="#000000">Metrics and validation via Euron (2 weeks)</text>
</g>
<!-- Evaluation &amp; Testing Models&#45;&gt;Metrics and validation via Euron (2 weeks) -->
<g id="edge32" class="edge">
<title>Evaluation &amp; Testing Models&#45;&gt;Metrics and validation via Euron (2 weeks)</title>
<path fill="none" stroke="#999999" stroke-width="2" d="M9846,-251.71C9846,-209.28 9846,-137.69 9846,-88.94"/>
<polygon fill="#999999" stroke="#999999" stroke-width="2" points="9850.9,-89.14 9846,-75.14 9841.1,-89.14 9850.9,-89.14"/>
</g>
<!-- APIs, containerization on Euron (2 weeks) -->
<g id="node38" class="node">
<title>APIs, containerization on Euron (2 weeks)</title>
<polygon fill="#fff8dc" stroke="#ffb300" stroke-width="3" points="10705.5,-72 10206.5,-72 10206.5,0 10705.5,0 10705.5,-72"/>
<text xml:space="preserve" text-anchor="middle" x="10456" y="-26.7" font-family="Helvetica,sans-Serif" font-weight="bold" font-size="24.00" fill="#000000">APIs, containerization on Euron (2 weeks)</text>
</g>
<!-- Deployment of Generative AI&#45;&gt;APIs, containerization on Euron (2 weeks) -->
<g id="edge34" class="edge">
<title>Deployment of Generative AI&#45;&gt;APIs, containerization on Euron (2 weeks)</title>
<path fill="none" stroke="#999999" stroke-width="2" d="M10389.01,-251.71C10402.31,-209.09 10424.78,-137.06 10439.99,-88.3"/>
<polygon fill="#999999" stroke="#999999" stroke-width="2" points="10444.65,-89.82 10444.14,-75 10435.3,-86.9 10444.65,-89.82"/>
</g>
<!-- Phase Projects and Portfolio -->
<g id="node39" class="node">
<title>Phase Projects and Portfolio</title>
<polygon fill="#fff8dc" stroke="#ffb300" stroke-width="3" points="11522,-576 11176,-576 11176,-504 11522,-504 11522,-576"/>
<text xml:space="preserve" text-anchor="middle" x="11349" y="-530.7" font-family="Helvetica,sans-Serif" font-weight="bold" font-size="24.00" fill="#000000">Phase Projects and Portfolio</text>
</g>
<!-- Building Mini Projects -->
<g id="node40" class="node">
<title>Building Mini Projects</title>
<polygon fill="#fff8dc" stroke="#ffb300" stroke-width="3" points="11236.5,-324 10965.5,-324 10965.5,-252 11236.5,-252 11236.5,-324"/>
<text xml:space="preserve" text-anchor="middle" x="11101" y="-278.7" font-family="Helvetica,sans-Serif" font-weight="bold" font-size="24.00" fill="#000000">Building Mini Projects</text>
</g>
<!-- Phase Projects and Portfolio&#45;&gt;Building Mini Projects -->
<g id="edge35" class="edge">
<title>Phase Projects and Portfolio&#45;&gt;Building Mini Projects</title>
<path fill="none" stroke="#999999" stroke-width="2" d="M11313.99,-503.71C11270.42,-459.79 11195.86,-384.63 11147.52,-335.89"/>
<polygon fill="#999999" stroke="#999999" stroke-width="2" points="11151.3,-332.75 11137.96,-326.26 11144.34,-339.65 11151.3,-332.75"/>
</g>
<!-- Capstone Project -->
<g id="node42" class="node">
<title>Capstone Project</title>
<polygon fill="#fff8dc" stroke="#ffb300" stroke-width="3" points="11704.75,-324 11489.25,-324 11489.25,-252 11704.75,-252 11704.75,-324"/>
<text xml:space="preserve" text-anchor="middle" x="11597" y="-278.7" font-family="Helvetica,sans-Serif" font-weight="bold" font-size="24.00" fill="#000000">Capstone Project</text>
</g>
<!-- Phase Projects and Portfolio&#45;&gt;Capstone Project -->
<g id="edge37" class="edge">
<title>Phase Projects and Portfolio&#45;&gt;Capstone Project</title>
<path fill="none" stroke="#999999" stroke-width="2" d="M11384.01,-503.71C11427.58,-459.79 11502.14,-384.63 11550.48,-335.89"/>
<polygon fill="#999999" stroke="#999999" stroke-width="2" points="11553.66,-339.65 11560.04,-326.26 11546.7,-332.75 11553.66,-339.65"/>
</g>
<!-- Guided projects on Euron (3 weeks) -->
<g id="node41" class="node">
<title>Guided projects on Euron (3 weeks)</title>
<polygon fill="#fff8dc" stroke="#ffb300" stroke-width="3" points="11244.38,-72 10813.62,-72 10813.62,0 11244.38,0 11244.38,-72"/>
<text xml:space="preserve" text-anchor="middle" x="11029" y="-26.7" font-family="Helvetica,sans-Serif" font-weight="bold" font-size="24.00" fill="#000000">Guided projects on Euron (3 weeks)</text>
</g>
<!-- Building Mini Projects&#45;&gt;Guided projects on Euron (3 weeks) -->
<g id="edge36" class="edge">
<title>Building Mini Projects&#45;&gt;Guided projects on Euron (3 weeks)</title>
<path fill="none" stroke="#999999" stroke-width="2" d="M11090.84,-251.71C11078.56,-209.09 11057.82,-137.06 11043.77,-88.3"/>
<polygon fill="#999999" stroke="#999999" stroke-width="2" points="11048.53,-87.12 11039.95,-75.02 11039.12,-89.83 11048.53,-87.12"/>
</g>
<!-- End&#45;to&#45;end generative AI solution on Euron (4 weeks) -->
<g id="node43" class="node">
<title>End&#45;to&#45;end generative AI solution on Euron (4 weeks)</title>
<polygon fill="#fff8dc" stroke="#ffb300" stroke-width="3" points="11987.38,-72 11352.62,-72 11352.62,0 11987.38,0 11987.38,-72"/>
<text xml:space="preserve" text-anchor="middle" x="11670" y="-26.7" font-family="Helvetica,sans-Serif" font-weight="bold" font-size="24.00" fill="#000000">End&#45;to&#45;end generative AI solution on Euron (4 weeks)</text>
</g>
<!-- Capstone Project&#45;&gt;End&#45;to&#45;end generative AI solution on Euron (4 weeks) -->
<g id="edge38" class="edge">
<title>Capstone Project&#45;&gt;End&#45;to&#45;end generative AI solution on Euron (4 weeks)</title>
<path fill="none" stroke="#999999" stroke-width="2" d="M11607.3,-251.71C11619.75,-209.09 11640.78,-137.06 11655.02,-88.3"/>
<polygon fill="#999999" stroke="#999999" stroke-width="2" points="11659.68,-89.83 11658.9,-75.01 11650.27,-87.08 11659.68,-89.83"/>
</g>
</g>
</svg>
